<svg xmlns:xlink="http://www.w3.org/1999/xlink" width="32" xmlns="http://www.w3.org/2000/svg" height="32" id="screenshot-7b8093c9-7997-11ed-b471-13134daf88e2" viewBox="-0 0 32 32" style="-webkit-print-color-adjust: exact;" fill="none" version="1.1"><g xmlns:xlink="http://www.w3.org/1999/xlink" xml:space="preserve" x="0px" id="shape-7b8093c9-7997-11ed-b471-13134daf88e2" style="fill: rgb(0, 0, 0);" ry="0" rx="0" y="0px" version="1.1"><g id="shape-7b80e1e0-7997-11ed-b471-13134daf88e2"><style type="text/css" rx="0" ry="0" style="fill: rgb(0, 0, 0);">.st0{fill:#FFFFFF;}
	.st1{fill:#009FE3;}
	.st2{fill:#3C3C3B;}</style></g><g id="shape-7b80e1e1-7997-11ed-b471-13134daf88e2"><g class="fills" id="fills-7b80e1e1-7997-11ed-b471-13134daf88e2"><ellipse class="st0" rx="16" ry="16" cx="15.999999999999886" cy="16" transform="matrix(1.000000, -0.000000, 0.000000, 1.000000, -0.000000, 0.000000)" style="fill: rgb(0, 159, 227); fill-opacity: 1;"/></g><g id="strokes-7b80e1e1-7997-11ed-b471-13134daf88e2" class="strokes"><g class="inner-stroke-shape" transform="matrix(1.000000, -0.000000, 0.000000, 1.000000, -0.000000, 0.000000)"><defs><clipPath id="inner-stroke-rumext-id-3-7b80e1e1-7997-11ed-b471-13134daf88e2-0"><use href="#stroke-shape-rumext-id-3-7b80e1e1-7997-11ed-b471-13134daf88e2-0"/></clipPath><ellipse class="st0" rx="16" ry="16" cx="15.999999999999886" cy="16" id="stroke-shape-rumext-id-3-7b80e1e1-7997-11ed-b471-13134daf88e2-0" style="fill: none; stroke-width: 4; stroke: rgb(0, 0, 0); stroke-opacity: 0;"/></defs><use href="#stroke-shape-rumext-id-3-7b80e1e1-7997-11ed-b471-13134daf88e2-0" clip-path="url('#inner-stroke-rumext-id-3-7b80e1e1-7997-11ed-b471-13134daf88e2-0')"/></g></g></g><g id="shape-7b80e1e2-7997-11ed-b471-13134daf88e2" rx="0" ry="0" style="fill: rgb(0, 0, 0);"><g id="shape-7b80e1e4-7997-11ed-b471-13134daf88e2" rx="0" ry="0" style="fill: rgb(0, 0, 0);"><g id="shape-7b80e1e5-7997-11ed-b471-13134daf88e2" rx="0" ry="0" style="fill: rgb(0, 0, 0);"><g id="shape-7b80e1e7-7997-11ed-b471-13134daf88e2"><g class="fills" id="fills-7b80e1e7-7997-11ed-b471-13134daf88e2"><path class="st1" rx="0" ry="0" d="M16.000,22.000C19.308,22.000,22.000,19.444,22.000,16.302C22.000,16.142,21.850,16.000,21.682,16.000L19.421,16.000C19.252,16.000,19.103,16.142,19.103,16.302C19.103,17.917,17.720,19.249,16.000,19.249C14.299,19.249,12.897,17.935,12.897,16.302C12.897,16.142,12.748,16.000,12.579,16.000L10.318,16.000C10.150,16.000,10.000,16.142,10.000,16.302C10.000,19.462,12.692,22.000,16.000,22.000ZL16.000,22.000Z" style="fill: rgb(253, 253, 255); fill-opacity: 1;"/></g></g><g id="shape-7b80e1e8-7997-11ed-b471-13134daf88e2"><g class="fills" id="fills-7b80e1e8-7997-11ed-b471-13134daf88e2"><path class="st1" rx="0" ry="0" d="M16.000,28.000C22.607,28.000,28.000,22.750,28.000,16.319C28.000,16.150,27.846,16.000,27.673,16.000L25.342,16.000C25.169,16.000,25.014,16.150,25.014,16.319C25.014,21.175,20.970,25.112,15.981,25.112C10.992,25.112,6.947,21.175,6.947,16.319C6.947,16.150,6.793,16.000,6.620,16.000L4.327,16.000C4.154,16.000,4.000,16.150,4.000,16.319C3.961,22.750,9.355,28.000,16.000,28.000ZZ" style="fill: rgb(253, 253, 255); fill-opacity: 1;"/></g></g></g><g id="shape-7b80e1e6-7997-11ed-b471-13134daf88e2"><g class="fills" id="fills-7b80e1e6-7997-11ed-b471-13134daf88e2"><path class="st2" rx="0" ry="0" d="M10.737,10.262C11.528,10.674,12.382,10.751,13.147,11.201C13.644,11.497,13.963,11.819,14.269,12.308C14.753,13.041,14.728,13.967,14.728,13.967L14.792,14.984C14.792,14.984,15.174,16.000,16.028,16.000C16.934,16.000,17.265,14.984,17.265,14.984L17.329,13.967C17.329,13.967,17.303,13.054,17.788,12.308C18.094,11.819,18.400,11.471,18.910,11.201C19.675,10.751,20.529,10.674,21.319,10.262C22.110,9.850,22.875,9.323,23.397,8.590C23.920,7.856,24.162,6.878,23.882,6.017C22.378,5.939,20.644,6.119,19.318,6.840C17.469,7.831,16.347,7.483,16.016,8.963L15.990,8.963C15.659,7.470,14.549,7.831,12.688,6.840C11.362,6.119,9.628,5.939,8.124,6.017C7.830,6.878,8.085,7.843,8.608,8.590C9.169,9.336,9.947,9.863,10.737,10.262ZZ" style="fill: rgb(253, 253, 255); fill-opacity: 1;"/></g></g></g></g></g></svg>